<svg width="100" height="100" viewBox="0 0 100 100" fill="none" xmlns="http://www.w3.org/2000/svg">
<path d="M100 50C100 77.6142 77.6142 100 50 100C22.3858 100 0 77.6142 0 50C0 22.3858 22.3858 0 50 0C77.6142 0 100 22.3858 100 50Z" fill="black"/>
<path d="M51.5914 15.1664C56.2609 15.0812 61.1436 15.324 65.6221 16.7958C66.0321 16.9289 66.4415 17.0541 66.8594 17.16C67.4145 17.3085 67.9298 17.5306 68.4551 17.7613C68.5795 17.815 68.704 17.8686 68.8284 17.9221C69.4527 18.1917 70.0719 18.4646 70.6753 18.7789C70.6248 19.2687 70.5407 19.7023 70.3862 20.1723C70.3443 20.3022 70.3025 20.4322 70.2608 20.5622C70.2382 20.6321 70.2157 20.7019 70.1924 20.7739C70.0588 21.1909 69.9303 21.6095 69.8023 22.0282C69.7746 22.1187 69.7469 22.2093 69.7184 22.3026C69.5343 22.9098 69.3641 23.5196 69.201 24.1327C68.9737 24.9865 68.7124 25.8269 68.4369 26.6663C68.2601 27.2068 68.1016 27.7464 67.9665 28.2989C67.9001 28.4921 67.9001 28.4921 67.7151 28.5846C67.4878 28.5009 67.4878 28.5009 67.1973 28.3664C67.034 28.2924 67.034 28.2924 66.8674 28.2168C66.8088 28.1901 66.7502 28.1634 66.6899 28.1358C62.2785 26.1351 57.7681 25.3294 52.9364 25.3298C52.603 25.3296 52.2696 25.3279 51.9361 25.3261C50.6777 25.323 49.4443 25.3689 48.1961 25.5319C48.0931 25.5449 47.9901 25.558 47.884 25.5714C45.5118 25.895 43.1441 26.5332 40.9806 27.5671C40.863 27.6198 40.7453 27.6723 40.6275 27.7246C38.7247 28.5793 36.9868 29.7253 35.4652 31.1539C35.2713 31.3354 35.0728 31.5072 34.8693 31.6778C33.4298 32.9429 32.3197 34.6169 31.3599 36.2627C31.3277 36.3174 31.2956 36.3721 31.2625 36.4285C30.6613 37.4655 30.2154 38.5679 29.7872 39.6855C29.7513 39.7791 29.7513 39.7791 29.7146 39.8747C27.145 46.708 27.6311 55.3429 30.6132 61.9529C31.1943 63.194 31.8522 64.3838 32.6549 65.4949C32.691 65.5453 32.7271 65.5958 32.7642 65.6478C33.3561 66.4687 34.0288 67.2061 34.7304 67.9342C34.851 68.0599 34.9695 68.1876 35.0876 68.3157C37.6188 70.994 41.3382 72.6226 44.8535 73.4939C44.982 73.5259 45.1104 73.5586 45.2385 73.5922C45.6893 73.7093 46.1403 73.7947 46.6004 73.8668C46.6654 73.8776 46.7304 73.8885 46.7973 73.8997C48.4059 74.1545 50.0095 74.2283 51.6362 74.2253C51.738 74.2252 51.8398 74.2252 51.9446 74.2251C54.68 74.2189 57.4114 74.0619 60.0594 73.3316C60.4196 73.2383 60.7839 73.1612 61.1471 73.0805C61.1471 67.9519 61.1471 62.8233 61.1471 57.5393C61.4829 57.7225 61.8187 57.9056 62.1647 58.0944C63.0312 58.5164 63.9085 58.8055 64.8474 59.0194C64.9806 59.0509 64.9806 59.0509 65.1166 59.083C67.6686 59.5999 70.0743 58.8574 72.3404 57.7243C72.3404 65.173 72.3404 72.6216 72.3404 80.296C71.7299 80.5097 71.1193 80.7234 70.4903 80.9436C70.3026 81.0093 70.1149 81.075 69.9215 81.1427C67.717 81.9016 65.4517 82.4519 63.1822 82.9787C63.0605 83.0074 63.0605 83.0074 62.9364 83.0366C61.4599 83.3835 61.4599 83.3835 60.8081 83.416C60.5704 83.4387 60.5704 83.4387 60.2605 83.5283C59.85 83.6322 59.441 83.6896 59.0209 83.739C58.9428 83.7485 58.8647 83.758 58.7843 83.7679C58.5312 83.7984 58.2781 83.8281 58.025 83.8575C57.9375 83.8677 57.8501 83.8779 57.76 83.8884C57.1625 83.9576 56.5647 84.0242 55.9667 84.0888C55.7868 84.1082 55.7868 84.1082 55.6033 84.1281C52.5223 84.4431 49.3335 84.3893 46.2535 84.0888C46.1415 84.0784 46.0295 84.068 45.9141 84.0573C44.7886 83.9516 43.6719 83.8421 42.5673 83.5966C42.2742 83.5334 41.9828 83.4885 41.6859 83.447C36.586 82.6728 31.3818 80.2291 27.4746 76.8733C27.375 76.7896 27.2754 76.706 27.1757 76.6225C26.873 76.3686 26.5722 76.1125 26.272 75.8557C26.1933 75.7887 26.1146 75.7217 26.0335 75.6526C25.6374 75.3091 25.2839 74.9529 24.9458 74.5523C24.8014 74.3866 24.6508 74.2374 24.4912 74.0865C23.9814 73.5835 23.5596 73.0016 23.1267 72.4329C23.0852 72.379 23.0437 72.3251 23.0009 72.2696C19.5897 67.829 17.2556 62.006 16.6512 56.4292C16.6206 56.2211 16.5897 56.0129 16.5587 55.8048C16.3038 53.8526 16.2467 51.8914 16.2523 49.9248C16.2524 49.8104 16.2525 49.696 16.2525 49.5781C16.2555 47.6658 16.2598 45.7313 16.7004 43.8597C16.7586 43.596 16.7969 43.3311 16.8351 43.0639C17.0589 41.4988 17.4502 39.9822 17.9463 38.4829C17.9802 38.3757 18.0141 38.2685 18.049 38.158C18.5512 36.5947 19.1506 35.0474 19.889 33.58C19.9229 33.5124 19.9569 33.4447 19.9919 33.375C20.5211 32.3285 21.0947 31.3219 21.7391 30.3423C21.7843 30.2731 21.8295 30.204 21.876 30.1327C22.8135 28.7054 23.8617 27.3939 25.0271 26.1466C25.2371 25.9206 25.4399 25.69 25.6418 25.4568C25.9261 25.1347 26.2288 24.8536 26.5567 24.5765C26.7275 24.4279 26.8839 24.2726 27.0409 24.1096C27.4624 23.6824 27.9297 23.3139 28.3996 22.9417C28.4923 22.8681 28.5849 22.7946 28.6804 22.7188C31.4776 20.5202 34.6094 18.8436 37.9278 17.5763C37.9964 17.5498 38.0649 17.5232 38.1354 17.4959C38.9703 17.1738 39.8256 16.935 40.6891 16.7047C40.869 16.6564 41.0484 16.6064 41.2277 16.5562C43.094 16.0399 44.9824 15.7016 46.901 15.4487C46.9796 15.438 47.0582 15.4274 47.1392 15.4165C48.6168 15.2216 50.1032 15.1944 51.5914 15.1664Z" fill="white"/>
<path d="M66.9635 42.2294C67.0679 42.2288 67.1723 42.2282 67.2799 42.2276C68.891 42.2522 70.5163 42.894 71.7044 43.9928C72.3684 44.695 72.9559 45.6164 73.2655 46.531C73.2929 46.6112 73.3204 46.6915 73.3486 46.7742C73.8148 48.4144 73.6949 50.3704 72.9128 51.8906C71.9236 53.541 70.4664 54.6019 68.6113 55.0989C66.7538 55.5149 64.8146 55.2793 63.1728 54.3222C62.6866 54.009 62.2865 53.6061 61.8871 53.1915C61.8247 53.1308 61.7622 53.0701 61.6978 53.0076C60.9248 52.2089 60.5154 51.1218 60.3145 50.0463C60.2976 49.9605 60.2807 49.8748 60.2632 49.7864C60.0126 47.9904 60.4173 46.3687 61.4232 44.8698C62.819 43.0524 64.7165 42.2416 66.9635 42.2294Z" fill="#008236"/>
<path d="M48.0111 46.531C50.8501 46.531 53.6892 46.531 56.6142 46.531C56.5837 46.8057 56.5532 47.0805 56.5217 47.3636C56.499 47.8259 56.4945 48.2883 56.4928 48.7512C56.4926 48.8148 56.4923 48.8784 56.4921 48.944C56.4917 49.9422 56.5737 50.8532 56.8918 51.8039C56.9185 51.8923 56.9452 51.9806 56.9727 52.0716C57.3944 53.3574 58.0642 54.4711 58.9269 55.5042C58.9679 55.5549 59.0089 55.6057 59.0511 55.658C59.2769 55.9467 59.2769 55.9467 59.5745 56.1517C59.5745 56.2128 59.5745 56.2738 59.5745 56.3367C55.7586 56.3367 51.9426 56.3367 48.0111 56.3367C48.0111 53.1008 48.0111 49.8649 48.0111 46.531Z" fill="white"/>
</svg>
